<?xml version="1.0" encoding="UTF-8"?>
<svg id="text" xmlns="http://www.w3.org/2000/svg" viewBox="0 0 1233.18 329.61">
  <defs>
    <style>
      .cls-1 {
        fill: #e26f3b;
      }

      .cls-2 {
        fill: #fbbc42;
      }

      .cls-3 {
        letter-spacing: 0em;
      }

      .cls-4 {
        fill: #f9d595;
      }

      .cls-5 {
        letter-spacing: .01em;
      }

      .cls-6 {
        fill: #e58e63;
      }

      .cls-7 {
        font-size: 220.95px;
      }

      .cls-7, .cls-8 {
        fill: #555d60;
        font-family: LinBiolinum, 'Linux Biolinum';
      }

      .cls-9 {
        letter-spacing: -.05em;
      }

      .cls-10 {
        letter-spacing: 0em;
      }

      .cls-8 {
        font-size: 73.65px;
      }
    </style>
  </defs>
  <g>
    <path class="cls-2" d="M300.55,59.58c1.23,1.01,2.04,3.15,2.45,6.44,.46,3.56,.15,7.02-.94,10.36-.62,1.92-1.78,4.31-3.47,7.17-.96,1.6-1.4,3.18-1.32,4.75,.1,1.49,.63,2.58,1.6,3.28,1.14,.79,.53,2.58-1.82,5.37-2.79,3.27-7.21,6.69-13.27,10.26-6.57,3.83-10.95,7.49-13.13,11.01-2.26,3.61-1.73,6.35,1.57,8.23,3.91,2.22,8.53,.79,13.84-4.3,.68-.65,1.32-1.01,1.95-1.06,.73-.06,1.06,.42,1,1.42-.29,3.85-1.8,7.71-4.53,11.58-1.12,1.53-3.67,4.46-7.65,8.79l-4.24,4.9c-1.21,1.67-1.81,3.08-1.79,4.24,.05,2.41,.51,4.49,1.38,6.24,1.16,2.33,2.83,3.39,5.01,3.2,1.38-.12,2.86-.88,4.44-2.28,1.38-1.22,2.42-2.52,3.13-3.9,.36-.68,.54-1.81,.52-3.39l-.03-3.48c.16-1.74,1.74-1.79,4.73-.15l2.27,1.26c.83,.4,1.47,.42,1.9,.04l2.83-2.15,6.33-5.05c2.62-2.41,4.68-4.89,6.19-7.44,.88-1.51,2-2.51,3.37-3.01,1.05-.39,1.98-.44,2.79-.17,2.68,.83,5.21,3.43,7.59,7.8,2.42,4.48,3.38,8.5,2.86,12.09-.65,4.53-3.81,8.27-9.45,11.23l-3.74,2.26c-1.25,.99-2.14,2.11-2.68,3.37-.35,.85-.57,1.73-.66,2.64l-.02,2.62-.16,3.98c-.24,1.69-.82,3.39-1.74,5.1-1.74,3.24-4.73,5.87-8.97,7.86-4.17,1.99-7.84,2.58-11.01,1.77-3.78-.94-6.97-.55-9.56,1.18-2.45,1.62-4.82,4.76-7.1,9.41-.59,1.19-.43,2.74,.48,4.65,.98,2.07,2.54,3.67,4.67,4.82,2.15,1.17,4.64,1.36,7.48,.55,3.66-.99,6.93-3.58,9.81-7.77,2.56-3.64,3.88-4.38,3.95-2.2,.49,16.44-4.79,26.87-15.86,31.29-1.63,.65-3.45,.95-5.47,.89-1.79-.04-3.58-.37-5.37-.99l-4.55-1.46c-1.81-.49-2.98-.53-3.5-.13-6.52,4.84-10.4,8.98-11.65,12.4-.7,1.91-.5,4.59,.62,8.05l.46,1.43c.45,1.63,.23,3.65-.66,6.08-.86,2.31-2.09,4.31-3.69,6l-6.23,4.66c-2.36,1.17-4.39,1.6-6.09,1.27l-9.98-2.3c-3.49-.69-6.11-.66-7.86,.08l-1.68,.66c-6.69,2.57-10.07,4.3-10.14,5.19,3.56,4.52,5.48,7.53,5.77,9.03,.5,2.37-1.07,4.85-4.7,7.45-1.48,1.08-4.12,2.34-7.93,3.79-4.35,1.62-8.76,2.91-13.22,3.86-12.26,2.57-20.88,1.7-25.86-2.6-1.67-1.44-2.62-3.22-2.85-5.36-.07-.94,.04-2.61,.36-5.03l.23-2.02c-.01-.59-.15-1.01-.39-1.26-1.87-1.93-4.01-2.62-6.4-2.06l-6.21,2.58-3.09,1.23c-1.16,.43-2.07,.63-2.72,.59-2.13-.05-5.29-1.71-9.5-4.97-3.28-2.53-5.7-4.71-7.26-6.55-.21-.24-.49-.31-.85-.19l-1.41,.73-1.89,.91c-.8,.21-1.6,.15-2.38-.18-1.47-.63-3.25-1.75-5.35-3.38-2.5-1.88-3.73-3.31-3.69-4.29,.03-.8,.81-1.51,2.34-2.13,1.6-.64,2.5-1.27,2.68-1.89,.13-.44-.21-1.07-1-1.89l-1.76-1.41c-1.13-.62-2.71-.99-4.74-1.11-2.52-.09-5.54,.87-9.06,2.89l-2.78,1.43c-1.21,.47-2.19,.5-2.94,.11-1.07-.59-3.27-2.2-6.6-4.84-3.62-2.89-6.18-5.17-7.68-6.83l-3.68-3.82c-1.43-1.46-2.51-2.7-3.23-3.72-2.56-3.64-4.98-7.96-7.23-12.98l-5.63-13.9c-.45-1.16-.21-1.69,.75-1.59,1.18,.16,3.31,1.27,6.41,3.32,1.75,1.13,3.44,2.12,5.05,2.96,2.1,1.1,3.39,1.56,3.89,1.39,2.39-.87,4.06-1.89,5-3.05,.98-1.26,1.23-2.85,.75-4.77-.59-2.34-2.32-4.48-5.19-6.42-1.11-.74-4.08-2.33-8.93-4.78l-6.33-3.12c-2.34-1.29-4.13-2.55-5.37-3.79-1.8-1.88-2.93-4.41-3.37-7.59-.45-3.18-.11-6.02,1.03-8.52,1.09-2.4,3.03-4.22,5.81-5.48,2.48-1.11,5.41-1.68,8.8-1.7l2.3-1.57c.64-1.58,.55-3.87-.28-6.86-.72-2.64-1.43-4.26-2.12-4.87-.6-.53-2-1.26-4.22-2.17-1.92-.8-3.17-1.64-3.74-2.5-.87-1.29-1.15-3.48-.84-6.57,.28-2.88,.92-5.56,1.92-8.04,.67-1.6,1.25-2.79,1.76-3.58,.74-1.13,1.54-1.79,2.38-2,2.61-.67,6.54-1.15,11.8-1.43,4.96-.25,8.47-.21,10.52,.11,1.32,.2,3.29-.27,5.92-1.42,2.75-1.2,4.57-2.48,5.47-3.86,.51-.78,.59-1.42,.24-1.92-1.08-1.53-1.82-2.78-2.2-3.75-.55-1.24-.62-2.23-.23-2.97l2.36-1.56c1.06-.32,2.31-.5,3.75-.53l3.42-2.25c.5-.95,.74-2.01,.73-3.17-.02-1.12-.29-2.02-.81-2.71-.59-.79-1.39-1.09-2.4-.91-1.89,.38-3.69,.41-5.38,.09-2.19-.4-3.89-1.34-5.11-2.81-2.79-3.33-3.26-7.35-1.41-12.05,3.21-8.17,6.76-14.45,10.62-18.84l2.71-2.39c.72-.33,1.68-.35,2.87-.06l4.06,1.16c1.53,.4,2.42,.47,2.66,.19l.71-3.05c.78-4.76,1.47-8.02,2.06-9.78,1.47-4.47,3.74-7.79,6.83-9.96,3.35-2.37,6.84-4.12,10.47-5.27,3.74-1.19,6.26-1.25,7.56-.19,1.14,.89,1.15,2.51,.02,4.86-2.89,5.93-4.56,10.57-5.02,13.93-.36,2.3-.12,3.83,.71,4.59,1.33,1.32,3.52,2.24,6.56,2.75,2.78,.51,4.69,.51,5.72,0,.75-.39,1.85-2.26,3.3-5.61l.85-2.46c.29-.94,.54-1.57,.77-1.87,.88-1.19,1.76-1.45,2.63-.79l2.52,1.93c.67,.27,1.57,.38,2.7,.32,1.08-.02,1.96-.18,2.63-.48,1.44-.66,2.25-1.52,2.43-2.56,.13-.8-.11-2.01-.74-3.62-.96-2.5-1.49-4.63-1.58-6.36-.16-2.93,.69-5.47,2.54-7.62l12.83-9.63c6.27-3.68,10.87-5.56,13.78-5.64,4.47-.11,7.12,.9,7.96,3.03,.49,1.32,.32,2.9-.5,4.75-.88,2.03-2.38,4.01-4.5,5.93-1.89,1.69-3.5,3.37-4.84,5.06-2.04,2.57-2.79,4.43-2.27,5.58,.66,1.41,2.45,1.21,5.35-.59,3.31-2.06,5.52-2.78,6.61-2.17,.77,.41,1.03,1.18,.8,2.3-.19,.88-.62,1.8-1.29,2.77-1.02,1.46-1.3,3.2-.84,5.2,.49,2.09,1.63,2.51,3.41,1.25,.86-.6,1.44-1.49,1.75-2.67l.79-3.32,.6-.48c2.09-.41,3.39-.23,3.9,.54,.29,.47,.53,1.48,.72,3.05,.42,1.37,.85,2.37,1.3,3.01,.82,1.12,2.09,1.95,3.81,2.51,2.88,.97,5.1,1.02,6.64,.14,1.62-.93,2.78-3.04,3.5-6.34l.52-5.03c.14-2.29,.36-3.96,.64-5.01,1.2-4.53,3.84-8.51,7.91-11.94l12.56-8.07c2.21-1.24,4.61-1.54,7.22-.91,2.46,.63,4.33,1.86,5.62,3.67,.88,1.25,1.32,2.6,1.32,4.05-.03,1.47-.5,2.7-1.41,3.7l-10.34,6.07c-5.3,2.82-8.06,5.05-8.26,6.68-.07,.47-2.42,4.35-1.96,4.94l1.51,1.75c.28,.3,.27,.62-.03,.97-3.49,4.2-3.27,5.13-4.42,9.47-.89,3.52-.97,6.8-.26,9.84,.82,3.56,2.53,6.79,5.13,9.69,2.24,2.45,4.67,4.2,7.28,5.26,5.16,2.12,10.22,.9,15.18-3.66,4.3-3.88,5.73-7.95,4.31-12.21-.36-1.09-.53-2.28-.49-3.58s.26-2.36,.67-3.18c.66-1.24,1.92-2.32,3.76-3.24l5.27-1.97c.56-.19,1.15-.21,1.76-.08l1.71,.55c1.48,.54,2.54,.84,3.16,.9,1.41,.13,2.94-.27,4.58-1.22l6.18-3.78,5.32-3.22c1.07-.61,1.99-.61,2.76,.02Z"/>
    <path class="cls-2" d="M256.61,266.63c-.5-1.22-.62-3.16-.35-5.8,.25-2.71,.76-4.46,1.52-5.25,.41-.4,1.35-.6,2.81-.61l4.44,.06c1.75-.06,3.11-.45,4.07-1.17l3.66-3.62c1.45-1.53,2.82-2.52,4.12-2.96,.89-.3,2.47-.29,4.74,.01,2.1,.28,3.69,.64,4.78,1.08,1.17,.46,2.03,1.32,2.59,2.57,.44,1.04,.66,2.26,.66,3.66-.04,3.11-1.85,6.31-5.43,9.6-1.74,1.59-4.22,3.4-7.45,5.42-2.43,1.49-4.89,2.52-7.4,3.07-2.57,.57-4.78,.55-6.63-.05-2.83-.94-4.86-2.95-6.12-6.02"/>
    <path class="cls-2" d="M320.67,172.19l.41-2.54c.33-1.19,.72-1.99,1.16-2.41,.64-.6,2-.95,4.08-1.07,2.12-.11,3.72,.13,4.78,.7,.83,.44,1.43,1.25,1.81,2.41l.62,3.14c.42,2.82,.45,5.88,.09,9.17-.37,3.52-1.1,6.51-2.19,8.97-.92,2.12-2.85,3.93-5.78,5.45-2.29,1.17-4.9,2.04-7.83,2.61-1.22,.24-2.77,.05-4.64-.58-2.34-.77-3.83-1.97-4.47-3.61-.9-2.26-.41-4.68,1.48-7.26,.62-.88,2.65-3,6.06-6.37l3.01-3.06c.65-.75,1.06-1.66,1.25-2.75l.16-2.81"/>
    <path class="cls-2" d="M315.6,88.24c.63-.15,1.41,.16,2.36,.92,.87,.71,1.45,1.4,1.74,2.07,1.29,2.87,1.86,5.23,1.71,7.1-.11,1.25-.76,3.26-1.95,6.05l-.65,2.27-.46,2.31c-.58,2.13-1.82,4.53-3.72,7.19-2.32,3.25-4.66,5.27-7.01,6.04-1.85,.65-3.6,.32-5.25-.97-2.19-1.75-3.93-5.13-5.22-10.12-1.16-4.61-1.4-7.88-.72-9.83,.33-.89,1.28-1.75,2.86-2.57,1.16-.6,2.31-1.04,3.45-1.34,1.38-.39,2.73-1.09,4.07-2.1l3.35-3.13,2.58-2.42c.98-.8,1.93-1.29,2.87-1.47"/>
    <path class="cls-2" d="M274.88,31.3c.99-.37,1.98-.21,2.98,.48,.49,.28,1.17,1.03,2.03,2.25l.4,.87,.7,1.93-.42,2.06c.38,.8,.55,1.37,.51,1.73-.07,1.3-.62,2.86-1.65,4.68-1.09,1.94-2.19,3.1-3.31,3.49-1.71,.59-3.18,.54-4.39-.15-1.71-.92-3-3.18-3.86-6.79-.37-1.57,.23-3.55,1.8-5.94,1.6-2.41,3.34-3.95,5.21-4.61"/>
    <path class="cls-2" d="M68.71,85.61c1.93-1.36,3.54-1.38,4.81-.04,1.04,1.06,1.75,2.76,2.12,5.1l.02,.1c.35,2.06,.24,4.81-.33,8.26-.7,4.2-1.06,6.96-1.08,8.29l-.18,5.9c-.26,2.13-.95,3.75-2.07,4.87l-7.07,4.71c-2.51,.6-4.94-.22-7.28-2.45-.96-.9-1.95-2.2-2.97-3.9-1.05-1.75-1.7-3.24-1.94-4.46-.33-1.67,.43-3.51,2.31-5.53,2.28-2.49,3.55-4.21,3.83-5.17l1.11-4.58c.49-1.7,1.16-3.11,2.02-4.23,2.31-3.06,4.55-5.35,6.7-6.87"/>
    <path class="cls-4" d="M269.9,262.48c.83-1.58,2.04-2.96,3.62-4.15l4.63-4.42c2.03-1.91,3.44-2.7,4.25-2.39,2.45,.98,2.96,3.19,1.53,6.62-1.42,3.34-3.88,6.11-7.4,8.3-2.23,1.36-4.03,1.98-5.38,1.87-1.21-.1-1.91-.74-2.12-1.91-.22-1.09,.07-2.39,.87-3.91"/>
    <path class="cls-4" d="M181.23,94.07c-.33-3.69-.06-6.99,.82-9.91,1.15-3.82,3.07-4.06,5.76-.72,2.33,2.88,6.44,3.64,12.33,2.28l6.12-1.45c2.01-.32,3.38-.09,4.12,.7,1.1,1.2,1.49,2.61,1.16,4.22-.2,1.02-.85,2.51-1.97,4.46-1.19,2.11-1.91,3.61-2.16,4.49-.49,1.65-.29,3.07,.58,4.26,.65,.92,1.6,1.59,2.85,2.02l3.17,.84c2.4,.64,3.45,2.45,3.16,5.41-.22,2.28,.6,3.18,2.47,2.72,1.27-.33,3.47-1.49,6.61-3.49l7.14-4.3c2.36-1.07,3.76-.92,4.2,.43l1.56,5.48c.72,2.43,1.49,4.3,2.32,5.63,2.41,3.99,6.1,4.94,11.08,2.84,3.34-1.4,5.27-.61,5.8,2.38v8.65c.04,1.67,.29,3.58,.74,5.73l1.09,4.9c.6,3.5-.2,6.49-2.41,8.97-1.27,1.42-1.93,3.04-1.97,4.84-.02,1.64,.42,2.9,1.31,3.8,.62,.62,2.05,1.33,4.3,2.11,2.06,.74,3.38,1.54,3.95,2.41,1.37,1.94,1.22,4.64-.44,8.11-2.07,4.18-6.11,8.61-12.13,13.28-1.67,1.32-1.35,2.97,.96,4.94l3.48,2.74c1.45,1.17,2.53,2.24,3.26,3.22,.94,1.28,.68,3.98-.78,8.08-1.54,4.2-1.81,7.15-.8,8.84,1.8,3.08,2.09,5.38,.87,6.92l-2.32,1.85-2.88,1.92-9.8,7.39c-3.27,2.9-4.56,5.51-3.88,7.83,.7,2.34-.49,5.23-3.56,8.67-3.15,3.53-6.19,5.02-9.11,4.46-2.62-.49-5.28-.34-7.99,.44l-6.2,2.52c-.33,.16-2.71,.39-7.15,.7-3.72,.29-5.33,.79-4.83,1.5,2.45,3.47,3.3,6.18,2.54,8.12-.93,2.32-4.36,4.79-10.28,7.41-2.41-.81-4.83-.98-7.27-.49-1.21,.21-3.11,.83-5.72,1.86-2.15,.85-3.84,1.24-5.05,1.18-1.77-.06-3.47-.91-5.1-2.55-4.64-4.75-9.8-5.76-15.49-3.02l-6.51,3.48c-2.44,1.12-4.53,1.45-6.29,.99-2.07-.55-3.9-1.32-5.47-2.29-2.61-1.62-3.42-3.37-2.43-5.23,1.24-2.29,.58-4.09-1.99-5.39l-3.33-1.68c-1.25-.78-2.05-1.68-2.4-2.71l-1.33-5.32c-.66-2.65-1.29-4.37-1.9-5.18-1.55-1.98-2.83-3.23-3.85-3.75-1.22-.59-2.54-.45-3.95,.4-6.34,3.8-11.04,4.11-14.12,.95l-3.58-4.37c-1.49-1.64-3.11-2.59-4.88-2.87-3.77-.56-5.67-4.25-5.72-11.08-.05-2.51,.2-4.89,.73-7.15,.52-2.17,1.07-3.37,1.64-3.6,4.3-1.55,5.97-4.16,5.02-7.84-.39-1.6-1.63-3.89-3.7-6.88l-5.45-7.88c-4.05-6.51-3.92-11.16,.38-13.95,2.32-1.49,3.28-3.9,2.87-7.22-.4-3.43-2.17-6.97-5.3-10.63-.72-.87-1.95-1.67-3.67-2.4-1.62-.73-2.49-1.19-2.62-1.38-.96-1.41,2.1-4.59,9.16-9.54,6.95-4.9,11.31-7.22,13.08-6.95,3.62,.56,6.58,.03,8.88-1.6s2.66-3.56,1.08-5.8c-1.02-1.44-.66-3.27,1.08-5.48,1.75-2.19,3.92-3.58,6.51-4.17,5.77-1.28,9.44-5.14,11.01-11.59l1.28-7.38c.44-2.65,1.04-4.45,1.8-5.4,2.72-3.37,6.22-4.69,10.51-3.97,3.79,.65,8.9,3.08,15.31,7.28,4.74,3.13,9.98,3.73,15.72,1.79,2.54-.87,4.53-2.13,5.96-3.78,1.55-1.8,2.22-3.81,2.01-6.03"/>
    <path class="cls-4" d="M329.39,185.72c-.91,2.03-1.98,3.43-3.21,4.19-.94,.59-2.73,1.12-5.37,1.59l-2.11,.67c-.65,.02-1.23-.63-1.76-1.95-.97-2.47-.42-4.7,1.64-6.71l6.5-5.74c2.76-3.16,4.69-3.8,5.78-1.93,1.07,1.88,.58,5.18-1.48,9.9"/>
    <path class="cls-4" d="M302.38,111.42c-.82-1.32-.92-2.91-.28-4.75,.19-.61,1.28-1.36,3.26-2.24l3.34-1.97c1.59-2.99,3.41-4.73,5.45-5.22,1.75-.43,2.83,.02,3.25,1.34,.5,1.59,.11,3.07-1.15,4.44-1.71,1.83-2.71,3.32-3,4.48-.55,2.18-1.59,3.82-3.14,4.91-1.35,.95-2.79,1.31-4.35,1.09-1.51-.22-2.64-.91-3.38-2.07"/>
    <path class="cls-4" d="M275.43,37.85c.57-.18,1.1,0,1.58,.53,.47,.51,.73,1.04,.79,1.59l-.12,.53-.12,.53,.15,.44,.12,.41c-.03,.57-.33,1.28-.88,2.1l-1.64,1.49c-1.12,.39-1.99,.17-2.6-.64-.39-.5-.69-1.29-.91-2.38-.17-.65,.17-1.5,1.02-2.53l2.61-2.06"/>
    <path class="cls-4" d="M64.98,102.53c1.25-.88,2.72-1,4.42-.37,1.65,.63,2.38,1.45,2.18,2.47l-.35,5.74c-.09,2.15-.6,3.7-1.51,4.64l-4.14,2.7c-1.22,.24-2.5-.27-3.83-1.53-2.28-2.2-2.9-4.7-1.83-7.5,.85-2.32,2.54-4.38,5.06-6.15"/>
    <path class="cls-4" d="M270.43,87.28c3.71-3.7,6.05-6.49,7-8.37,.9-1.79,1.75-2.8,2.55-3.03,.64-.21,1.4,.06,2.28,.8l2.7,2.52c1.28,1.04,2.58,1.7,3.89,1.97,1.46,.3,2.08,1.63,1.87,3.99-.19,2.08-.94,4.42-2.22,6.99-1.3,2.62-2.66,4.45-4.07,5.49-1.57,1.19-2.75,.97-3.54-.68-.75-1.57-2.08-2.12-3.98-1.67l-5.26,2.46-4.5,1.89c-1.18,.03-1.66-1.07-1.44-3.31,.33-3.21,1.9-6.24,4.72-9.07"/>
    <path class="cls-4" d="M297.51,153.39c4.27-1.43,8.05-3.24,11.35-5.42,4.81-3.21,7.08-2.67,6.81,1.63-.11,1.61-.58,3.41-1.42,5.4-.81,1.92-1.65,3.3-2.52,4.14-.64,.6-1.78,1.4-3.41,2.41-1.68,1.04-2.92,1.91-3.71,2.62-2.8,2.53-4.11,6.2-3.93,11.02,.25,6.9-.95,9.46-3.59,7.7-.71-.49-1.8-1.54-3.26-3.14-1.32-1.45-2.19-2.27-2.61-2.45-1.31-.51-3.63-.55-6.97-.14-2.48,.32-4.15-.32-4.99-1.92-1.85-3.61-1.77-6.23,.23-7.86,.7-.57,1.55-.95,2.55-1.14,.9-.12,1.56-.07,1.97,.15,1.48,.79,3.43,.08,5.85-2.15,2.41-2.25,3.75-4.61,4.03-7.07,.14-1.16,.5-2,1.08-2.52l2.53-1.24"/>
    <path class="cls-4" d="M134.16,85.18c-1.69,3.47-4.14,4.75-7.34,3.86-1.15-.33-2.7,.67-4.64,3-2.04,2.46-3.99,3.62-5.85,3.47-2.57-.16-5.13,.34-7.68,1.51-2.45,1.14-3.75,2.3-3.88,3.46-.11,1.14-.55,1.17-1.31,.1s-1.28-2.51-1.55-4.3c-.75-5.27,1.37-8.48,6.34-9.64l5.47-3.09c1.98-1.76,3.3-4.47,3.95-8.12,.52-3.01,1.71-5.62,3.58-7.86,1.83-2.13,3.13-2.65,3.91-1.55,.5,.71,.78,2.27,.83,4.69,.01,2.41,.27,3.97,.77,4.68l1.91,3.33c1.03,1.1,2.99,1.5,5.85,1.2,.48-.05,.7,.5,.65,1.63-.09,1.17-.43,2.38-1.01,3.63"/>
    <g>
      <path class="cls-6" d="M239.47,194.96c-1.19,8.82-3.99,17.18-8.41,25.07-4.44,7.9-10.12,14.67-17.03,20.31-7.15,5.85-15.07,10.03-23.76,12.54s-17.51,3.18-26.47,2c-8.62-1.14-16.78-3.9-24.5-8.28-7.66-4.38-14.25-10.01-19.78-16.89-5.71-7.13-9.83-15.1-12.37-23.89-5.48-18.97-4.15-36.11,3.97-51.41,8.27-15.56,21.94-26.09,41.02-31.6,8.71-2.52,17.66-3.27,26.84-2.27,8.9,.97,17.31,3.51,25.25,7.61,8.01,4.17,14.86,9.58,20.54,16.26,5.95,7.01,10.18,14.89,12.71,23.63,2.53,8.77,3.19,17.74,1.97,26.93"/>
      <path class="cls-1" d="M212.84,240.61c-6.85,5.35-14.43,9.23-22.74,11.63-11.02,3.18-22.15,3.46-33.39,.83,25.33-1.33,45.29-10.2,59.87-26.63,12.53-14.13,19.72-31.88,21.6-53.25,1.74,8.42,1.82,16.89,.22,25.42-1.54,8.27-4.51,16.03-8.92,23.28-4.44,7.26-9.98,13.5-16.62,18.71"/>
    </g>
  </g>
  <text class="cls-7" transform="translate(355.51 192.68)"><tspan class="cls-9" x="0" y="0">T</tspan><tspan x="108.42" y="0">amashii</tspan></text>
  <text class="cls-8" transform="translate(377.39 276.37)"><tspan class="cls-5" x="0" y="0">P</tspan><tspan x="42.04" y="0">hysically Bas</tspan><tspan class="cls-3" x="437.72" y="0">e</tspan><tspan x="471.56" y="0">d Rende</tspan><tspan class="cls-10" x="718.5" y="0">r</tspan><tspan x="744.07" y="0">er</tspan></text>
</svg>